<?xml version="1.0" encoding="UTF-8" ?>
<!DOCTYPE svg PUBLIC "-//W3C//DTD SVG 1.1//EN" "http://www.w3.org/Graphics/SVG/1.1/DTD/svg11.dtd">
<svg width="476pt" height="300pt" viewBox="0 0 476 300" version="1.1" xmlns="http://www.w3.org/2000/svg">
<g id="#000000ff">
</g>
<g id="#aa007fff">
<path fill="#aa007f" opacity="1.00" d=" M 81.03 56.02 C 81.18 53.87 82.33 50.87 84.91 50.97 C 87.17 51.11 90.25 50.10 91.73 52.41 C 93.88 54.75 93.39 58.08 93.44 60.99 C 93.37 112.34 93.47 163.68 93.40 215.03 C 93.54 217.33 92.15 219.24 90.92 221.04 C 88.32 220.99 85.71 221.00 83.11 221.05 C 81.98 219.27 80.87 217.34 81.00 215.14 C 80.95 189.56 81.09 163.97 80.92 138.38 C 58.62 138.49 36.31 138.41 14.00 138.42 C 14.00 136.36 13.99 134.31 13.99 132.25 C 36.27 132.27 58.56 132.09 80.83 132.35 C 81.24 106.91 80.85 81.46 81.03 56.02 Z" />
<path fill="#aa007f" opacity="1.00" d=" M 162.25 50.99 C 175.15 51.02 188.05 50.99 200.95 50.98 C 206.86 51.33 213.55 53.11 216.80 58.53 C 220.65 64.58 220.59 72.02 221.00 78.93 C 221.09 92.29 221.03 105.65 221.04 119.01 C 220.92 127.69 221.37 136.64 218.50 144.97 C 217.23 148.81 214.33 152.05 210.77 153.90 C 201.88 157.16 192.34 156.34 183.05 156.29 C 182.94 177.63 183.03 198.96 183.00 220.30 C 176.09 220.24 169.18 220.25 162.27 220.29 C 162.18 163.86 162.22 107.42 162.25 50.99 M 183.11 72.43 C 182.87 93.61 183.05 114.78 183.01 135.96 C 187.28 135.86 191.66 136.34 195.83 135.26 C 199.21 134.19 199.60 130.06 199.75 127.07 C 199.81 112.40 199.63 97.72 199.82 83.04 C 199.96 80.32 199.46 77.64 198.90 74.99 C 194.48 71.16 188.40 72.89 183.11 72.43 Z" />
<path fill="#aa007f" opacity="1.00" d=" M 304.74 53.57 C 310.15 51.18 316.21 50.75 322.06 50.99 C 329.03 50.94 336.55 50.55 342.82 54.09 C 347.52 56.59 349.22 61.99 350.36 66.82 C 352.73 85.79 350.89 104.97 351.81 124.01 C 345.12 123.99 338.44 124.01 331.76 124.00 C 331.81 112.34 331.74 100.68 331.79 89.02 C 332.02 84.70 331.39 80.39 330.67 76.14 C 327.77 71.89 321.63 73.16 317.43 74.28 C 316.31 76.44 315.50 78.79 315.47 81.25 C 315.47 118.12 315.49 155.01 315.45 191.88 C 315.57 194.76 316.67 198.16 319.63 199.24 C 321.83 199.61 324.08 199.45 326.30 199.64 C 327.86 198.83 329.57 198.10 330.63 196.62 C 331.19 193.44 331.67 190.23 331.80 187.00 C 331.74 173.78 331.81 160.55 331.76 147.33 C 338.35 147.31 344.93 147.26 351.52 147.36 C 351.52 164.35 351.89 181.35 351.22 198.33 C 350.42 203.68 350.30 209.43 347.23 214.10 C 344.57 218.67 339.13 220.99 334.01 221.03 C 327.31 221.02 320.62 220.96 313.93 221.04 C 308.89 221.22 303.47 219.63 300.18 215.62 C 297.31 212.16 296.33 207.63 295.71 203.30 C 295.03 197.20 294.34 191.09 294.54 184.95 C 294.56 157.63 294.54 130.31 294.55 102.99 C 294.62 90.37 293.99 77.62 296.45 65.16 C 297.67 60.50 300.16 55.68 304.74 53.57 Z" />
<path fill="#aa007f" opacity="1.00" d=" M 373.42 51.29 C 375.49 50.65 377.75 51.08 379.90 50.94 C 381.71 52.46 383.08 54.55 382.79 57.02 C 382.69 82.12 382.87 107.21 382.69 132.31 C 405.13 132.13 427.57 132.26 450.00 132.24 C 450.00 134.30 450.00 136.36 450.00 138.42 C 427.58 138.45 405.16 138.39 382.74 138.45 C 382.80 162.64 382.73 186.82 382.78 211.01 C 382.77 214.42 383.24 218.16 381.03 221.07 C 378.32 221.00 375.62 220.99 372.93 221.06 C 371.68 219.25 370.37 217.29 370.62 214.97 C 370.64 162.32 370.62 109.67 370.63 57.02 C 370.53 54.80 371.65 52.60 373.42 51.29 Z" />
<path fill="#aa007f" opacity="1.00" d=" M 106.50 59.76 C 108.56 54.89 113.72 51.48 119.03 51.60 C 127.51 51.66 136.00 51.63 144.49 51.64 C 144.47 52.60 144.44 54.54 144.42 55.50 C 136.26 55.49 128.11 55.54 119.95 55.46 C 115.02 55.42 110.53 59.26 109.55 64.07 C 108.36 66.79 109.82 69.57 110.51 72.20 C 108.98 72.19 107.46 72.19 105.95 72.23 C 104.87 68.16 104.65 63.64 106.50 59.76 Z" />
<path fill="#aa007f" opacity="1.00" d=" M 238.65 52.00 C 245.48 52.00 252.32 52.00 259.15 52.00 C 259.13 100.94 259.09 149.88 259.17 198.82 C 266.16 198.86 273.15 198.82 280.14 198.84 C 280.15 206.22 280.13 213.60 280.16 220.98 C 266.33 221.03 252.51 221.00 238.69 220.99 C 238.55 164.66 238.63 108.33 238.65 52.00 Z" />
<path fill="#aa007f" opacity="1.00" d=" M 107.21 77.01 C 119.61 76.98 132.02 77.00 144.43 76.99 C 144.43 78.34 144.44 79.68 144.46 81.02 C 132.09 80.90 119.70 81.30 107.34 80.81 C 107.30 79.54 107.26 78.27 107.21 77.01 Z" />
<path fill="#aa007f" opacity="1.00" d=" M 104.20 103.12 C 105.39 93.79 113.77 86.09 123.23 85.84 C 123.14 96.58 123.22 107.33 123.18 118.08 C 121.82 118.03 120.46 117.97 119.10 117.90 C 118.84 108.87 119.09 99.83 118.98 90.80 C 112.37 93.21 107.92 100.11 108.06 107.07 C 108.59 112.49 111.41 117.99 116.32 120.67 C 120.36 123.38 125.52 123.48 130.10 122.37 C 138.40 119.81 143.67 110.12 140.97 101.80 C 140.02 98.19 137.71 95.16 134.80 92.89 C 135.24 91.45 135.68 90.02 136.18 88.60 C 142.36 92.46 146.14 99.71 146.02 106.96 C 145.56 112.80 143.17 118.74 138.40 122.36 C 131.60 128.45 120.56 129.00 113.16 123.70 C 106.57 119.28 102.90 110.97 104.20 103.12 Z" />
<path fill="#aa007f" opacity="1.00" d=" M 119.06 132.25 C 129.94 128.38 142.82 136.23 145.28 147.31 C 147.51 155.03 144.27 163.70 138.13 168.72 C 145.03 168.48 151.93 168.68 158.83 168.59 C 158.83 169.62 158.84 171.67 158.85 172.70 C 141.67 172.82 124.50 172.76 107.33 172.72 C 107.33 171.69 107.34 169.63 107.34 168.61 C 114.75 168.54 122.18 168.87 129.57 168.45 C 137.79 166.36 143.30 157.09 141.30 148.84 C 139.79 141.50 132.70 135.30 125.03 135.87 C 115.74 135.12 107.82 144.03 108.06 153.00 C 108.42 156.98 110.33 160.62 112.33 164.01 C 110.68 164.00 109.03 163.99 107.39 163.99 C 105.55 160.61 103.93 156.95 104.00 153.03 C 103.59 143.77 110.08 134.67 119.06 132.25 Z" />
<path fill="#aa007f" opacity="1.00" d=" M 112.34 183.27 C 119.28 177.85 129.79 177.63 136.91 182.85 C 142.57 186.59 145.76 193.29 146.04 199.98 C 145.78 207.19 142.25 214.51 135.86 218.21 C 131.33 221.49 125.47 221.39 120.17 220.80 C 110.59 218.70 103.67 209.31 103.87 199.60 C 105.21 199.63 106.56 199.67 107.90 199.70 C 108.37 205.29 110.77 211.12 115.69 214.20 C 119.68 217.39 125.13 217.10 129.89 216.44 C 138.71 213.75 143.88 203.30 140.76 194.62 C 138.60 188.23 132.41 183.91 125.82 183.13 C 118.51 183.06 111.53 187.79 108.93 194.66 C 107.60 194.66 106.26 194.66 104.93 194.67 C 105.51 190.07 108.84 186.13 112.34 183.27 Z" />
<path fill="#aa007f" opacity="1.00" d=" M 131.84 257.00 C 136.09 257.00 140.34 256.98 144.60 257.01 C 144.44 257.49 144.13 258.44 143.98 258.92 C 141.05 259.13 138.12 259.00 135.20 259.02 C 135.20 260.67 135.20 262.32 135.20 263.98 C 138.15 264.06 141.31 263.46 144.04 264.87 C 141.64 267.02 138.11 265.69 135.20 266.02 C 135.20 268.01 135.21 269.99 135.21 271.98 C 138.14 272.01 141.07 271.86 143.99 272.09 C 144.14 272.57 144.45 273.52 144.60 273.99 C 140.35 274.01 136.09 274.00 131.84 274.00 C 131.83 268.33 131.83 262.67 131.84 257.00 Z" />
<path fill="#aa007f" opacity="1.00" d=" M 154.16 256.94 C 155.31 256.96 156.47 257.00 157.62 257.07 C 157.51 262.68 157.46 268.29 157.65 273.89 C 154.10 273.90 150.22 274.79 146.97 272.95 C 146.01 269.75 145.91 266.38 146.97 263.19 C 147.46 262.89 148.45 262.30 148.94 262.00 C 150.68 261.99 152.42 261.98 154.16 261.99 C 154.16 260.30 154.16 258.62 154.16 256.94 M 150.06 264.09 C 149.38 266.65 149.39 269.31 150.04 271.89 C 151.28 271.91 152.53 271.92 153.78 271.90 C 154.22 269.33 154.23 266.71 153.81 264.13 C 152.56 264.09 151.31 264.08 150.06 264.09 Z" />
<path fill="#aa007f" opacity="1.00" d=" M 164.39 259.08 C 162.96 259.18 159.56 259.31 161.01 257.06 C 161.85 257.02 163.53 256.95 164.38 256.91 C 164.38 257.46 164.38 258.54 164.39 259.08 Z" />
<path fill="#aa007f" opacity="1.00" d=" M 257.88 259.08 C 257.81 258.36 257.81 257.66 257.87 256.95 C 258.75 256.96 260.50 256.99 261.38 257.00 C 261.38 257.50 261.38 258.50 261.38 258.99 C 260.50 259.01 258.75 259.06 257.88 259.08 Z" />
<path fill="#aa007f" opacity="1.00" d=" M 302.65 260.41 C 302.06 256.77 306.75 256.72 309.21 256.94 C 309.22 262.63 309.22 268.32 309.21 274.01 C 308.37 274.01 306.69 274.01 305.84 274.01 C 305.83 269.36 305.80 264.71 305.90 260.06 C 305.09 260.15 303.47 260.33 302.65 260.41 Z" />
<path fill="#aa007f" opacity="1.00" d=" M 321.09 256.96 C 323.12 257.00 325.16 257.00 327.20 256.92 C 330.43 258.76 330.01 262.81 330.06 266.00 C 330.07 268.90 330.01 272.40 327.21 274.09 C 325.17 274.00 323.13 273.99 321.09 274.04 C 319.60 272.71 318.19 271.11 318.58 268.95 C 318.93 264.90 317.15 259.71 321.09 256.96 M 322.13 260.16 C 321.84 263.73 321.88 267.33 322.10 270.90 C 322.75 272.51 324.69 271.77 326.00 272.00 C 326.93 267.73 326.95 263.24 325.98 258.98 C 324.76 259.28 322.50 258.45 322.13 260.16 Z" />
<path fill="#aa007f" opacity="1.00" d=" M 167.94 257.99 C 168.76 257.99 170.40 257.99 171.22 257.99 C 171.20 259.29 171.19 260.60 171.18 261.91 C 171.98 261.96 173.58 262.07 174.38 262.12 C 173.47 262.96 172.45 263.68 171.34 264.26 C 171.03 266.67 171.23 269.11 171.24 271.53 C 172.62 271.91 174.08 272.31 174.33 273.97 C 172.54 274.01 170.75 274.02 168.96 274.06 C 166.70 270.54 168.94 266.08 166.88 262.50 C 168.13 261.29 167.79 259.54 167.94 257.99 Z" />
<path fill="#aa007f" opacity="1.00" d=" M 160.84 261.99 C 161.73 261.99 163.49 261.99 164.38 261.99 C 164.39 266.00 164.39 270.00 164.37 274.01 C 163.49 274.01 161.73 274.01 160.84 274.01 C 160.83 270.00 160.83 265.99 160.84 261.99 Z" />
<path fill="#aa007f" opacity="1.00" d=" M 179.11 261.94 C 181.75 262.12 185.18 261.16 186.95 263.75 C 188.49 266.40 188.55 270.16 186.63 272.63 C 184.74 274.81 181.61 273.84 179.11 274.05 C 175.05 271.33 175.05 264.67 179.11 261.94 M 180.75 263.81 C 179.16 266.42 179.12 269.59 180.76 272.19 C 186.25 273.22 186.23 262.75 180.75 263.81 Z" />
<path fill="#aa007f" opacity="1.00" d=" M 190.60 262.00 C 193.81 261.97 197.02 261.91 200.23 262.10 C 200.67 266.46 195.32 262.30 194.11 265.29 C 193.82 268.19 194.02 271.10 194.00 274.01 C 193.15 274.01 191.45 274.02 190.60 274.02 C 190.59 270.01 190.59 266.01 190.60 262.00 Z" />
<path fill="#aa007f" opacity="1.00" d=" M 205.36 261.99 C 206.50 261.99 207.65 261.98 208.80 261.97 C 209.63 264.45 210.57 266.89 211.67 269.27 C 212.69 266.88 213.57 264.44 214.32 261.95 C 215.54 261.96 216.75 262.01 217.97 262.12 C 216.27 266.05 214.73 270.06 213.11 274.03 C 212.35 274.02 210.81 274.01 210.05 274.00 C 208.54 269.97 206.86 266.01 205.36 261.99 Z" />
<path fill="#aa007f" opacity="1.00" d=" M 220.95 262.98 C 222.94 261.41 225.80 261.72 228.11 262.24 C 230.59 263.52 230.76 266.58 231.16 269.00 C 228.20 269.02 225.23 269.00 222.27 269.03 C 222.70 270.19 223.23 272.27 224.91 271.99 C 226.60 271.69 228.21 270.77 229.96 271.02 C 231.11 272.84 228.56 273.95 227.16 274.02 C 225.13 274.07 222.69 274.52 221.02 273.06 C 218.37 270.44 218.49 265.69 220.95 262.98 M 222.26 267.01 C 224.22 266.97 226.18 266.89 228.14 266.72 C 227.31 265.65 226.77 263.57 224.99 264.00 C 223.20 263.67 223.01 265.96 222.26 267.01 Z" />
<path fill="#aa007f" opacity="1.00" d=" M 233.61 262.00 C 236.79 261.97 239.98 261.93 243.17 262.07 C 243.85 266.47 238.32 262.29 237.11 265.29 C 236.82 268.19 237.02 271.10 237.01 274.01 C 236.16 274.01 234.46 274.02 233.61 274.02 C 233.59 270.01 233.58 266.01 233.61 262.00 Z" />
<path fill="#aa007f" opacity="1.00" d=" M 243.87 265.20 C 244.80 262.55 247.36 261.41 250.05 261.89 C 251.77 261.88 255.93 262.08 254.79 264.73 C 252.16 265.64 249.40 262.41 247.00 264.96 C 248.51 268.16 252.56 266.26 255.11 267.99 C 256.11 270.21 255.69 273.25 252.96 273.90 C 249.99 274.00 245.91 274.91 243.83 272.22 C 243.65 270.13 246.46 271.20 247.52 271.55 C 249.78 272.59 253.16 272.40 252.32 269.09 C 249.20 268.99 244.61 269.14 243.87 265.20 Z" />
<path fill="#aa007f" opacity="1.00" d=" M 257.84 261.99 C 258.73 261.99 260.49 261.99 261.37 261.99 C 261.39 265.99 261.39 270.00 261.37 274.01 C 260.49 274.01 258.73 274.01 257.84 274.01 C 257.83 270.00 257.83 266.00 257.84 261.99 Z" />
<path fill="#aa007f" opacity="1.00" d=" M 267.09 261.95 C 269.61 262.15 272.74 261.18 274.64 263.38 C 276.55 265.85 276.49 269.61 274.94 272.25 C 273.18 274.81 269.73 273.90 267.10 274.05 C 263.05 271.33 263.05 264.67 267.09 261.95 M 268.74 263.82 C 267.14 266.42 267.15 269.58 268.74 272.19 C 274.24 273.26 274.25 262.74 268.74 263.82 Z" />
<path fill="#aa007f" opacity="1.00" d=" M 278.60 261.99 C 281.71 262.00 284.82 262.01 287.93 261.93 C 291.26 265.08 289.67 269.97 290.00 274.01 C 289.18 274.01 287.53 274.01 286.70 274.01 C 286.70 271.28 286.86 268.55 286.60 265.84 C 286.32 263.72 283.14 263.18 282.16 265.06 C 281.82 268.03 282.00 271.03 282.00 274.01 C 281.15 274.01 279.45 274.01 278.60 274.02 C 278.59 270.01 278.58 266.00 278.60 261.99 Z" />
<path fill="#aa007f" opacity="1.00" d=" M 292.93 262.37 C 293.84 261.24 296.92 262.15 295.74 263.75 C 294.80 264.88 291.71 264.01 292.93 262.37 Z" />
<path fill="#aa007f" opacity="1.00" d=" M 292.93 272.37 C 293.84 271.24 296.91 272.16 295.74 273.76 C 294.80 274.89 291.71 274.00 292.93 272.37 Z" />
<path fill="#aa007f" opacity="1.00" d=" M 312.92 272.38 C 313.81 271.25 316.88 272.11 315.76 273.74 C 314.83 274.87 311.74 274.04 312.92 272.38 Z" />
</g>
</svg>
